<svg xmlns="http://www.w3.org/2000/svg" xml:space="preserve" width="64" height="64"><circle cx="31.833" cy="32" r="32" fill="#4F5D73"/><g fill="#231F20" opacity=".2"><circle cx="44" cy="39" r="2"/><circle cx="44" cy="51" r="2"/><path d="M26 22h-4v-4a2 2 0 1 0-4 0v4h-4a2 2 0 1 0 0 4h4v4a2 2 0 0 0 4 0v-4h4a2 2 0 0 0 0-4zm12 4h12a2 2 0 0 0 0-4H38a2 2 0 1 0 0 4zm12 17H38a2 2 0 1 0 0 4h12a2 2 0 0 0 0-4zm-23.172-3.828a2 2 0 0 0-2.828 0l-4 4-4-4A2 2 0 1 0 13.172 42l4 4-4 4A2 2 0 1 0 16 52.828l4-4 4 4A2 2 0 1 0 26.828 50l-4-4 4-4a2 2 0 0 0 0-2.828z"/></g><circle cx="44" cy="37" r="2" fill="#E0E0D1"/><circle cx="44" cy="49" r="2" fill="#E0E0D1"/><path fill="#F5CF87" d="M28 22a2 2 0 0 1-2 2H14a2 2 0 1 1 0-4h12a2 2 0 0 1 2 2z"/><path fill="#E0995E" d="M52 22a2 2 0 0 1-2 2H38a2 2 0 1 1 0-4h12a2 2 0 0 1 2 2z"/><path fill="#F5CF87" d="M20 30a2 2 0 0 1-2-2V16a2 2 0 1 1 4 0v12a2 2 0 0 1-2 2z"/><path fill="#E0E0D1" d="M52 43a2 2 0 0 1-2 2H38a2 2 0 1 1 0-4h12a2 2 0 0 1 2 2z"/><path fill="#76C2AF" d="M26.828 50.828a2 2 0 0 1-2.828 0L13.172 40A2 2 0 1 1 16 37.172L26.828 48a2 2 0 0 1 0 2.828z"/><path fill="#76C2AF" d="M13.172 50.828a2 2 0 0 1 0-2.828L24 37.172A2 2 0 1 1 26.828 40L16 50.828a2 2 0 0 1-2.828 0z"/></svg>